<svg id="Layer_1" data-name="Layer 1" xmlns="http://www.w3.org/2000/svg" viewBox="0 0 952.5 287.65"><defs><style>.cls-1{fill:#005991;}.cls-2{fill:#ecad3f;}.cls-3{fill:#fde1b1;}</style></defs><polygon class="cls-1" points="115.81 0 67.85 0 0 287.64 208.46 287.64 217.03 243.56 56.1 242.75 115.81 0"/><polygon class="cls-2" points="169.93 229 219.19 229.25 269.53 0 130.11 0 118.69 40.93 213.23 40.93 169.93 229"/><polygon class="cls-1" points="113.06 125.52 95.28 195.75 145.88 195.75 112.14 229.1 131.77 229.1 165.51 195.75 183.29 125.52 113.06 125.52"/><polygon class="cls-2" points="165.51 134.75 95.28 134.75 113.06 64.52 183.29 64.52 165.51 134.75"/><path class="cls-3" d="M483.9,109,454.56,243.49h79.52l-17,77.75h-161L402.36,109Z" transform="translate(-52.57 -62.54)"/><path class="cls-3" d="M533.66,322l34.59-158.54h80.53L614.19,322ZM571,150.8l10.77-49.38h80.53L651.54,150.8Z" transform="translate(-52.57 -62.54)"/><path class="cls-3" d="M849.56,178.4,743,323.26h-86.1l2.69-10.13L753.85,186l1.34-5.07h-82l19.75-74.45H868.64Z" transform="translate(-52.57 -62.54)"/><path class="cls-3" d="M1005.07,106.73l-56.9,214.5H856l34.4-129.66H869.62L883,141.17l46.11-34.44Z" transform="translate(-52.57 -62.54)"/></svg>